<?xml version="1.0" standalone="no"?><!DOCTYPE svg PUBLIC "-//W3C//DTD SVG 1.1//EN" "http://www.w3.org/Graphics/SVG/1.1/DTD/svg11.dtd"><svg t="1617092073236" class="icon" viewBox="0 0 1024 1024" version="1.1" xmlns="http://www.w3.org/2000/svg" p-id="7480" xmlns:xlink="http://www.w3.org/1999/xlink" width="200" height="200"><defs><style type="text/css"></style></defs><path d="M732.38016 732.38016v-60.10368c0-102.02624-69.9136-190.03392-167.61856-214.03136-16.31232-4.00384-20.75136-25.09824-7.43424-35.33824 34.34496-26.40384 54.84544-67.11296 54.84544-111.2576 0-77.45024-62.78656-140.2368-140.24192-140.2368-77.45536 0-140.24192 62.78656-140.24192 140.2368 0 44.14464 20.50048 84.85376 54.84544 111.2576 13.312 10.24 8.87808 31.3344-7.43424 35.33824-97.70496 23.99744-167.62368 112.00512-167.62368 214.03136v60.1088h520.9088z m-260.4544-601.0368c99.584 0 180.31616 80.72704 180.31616 180.31104a179.82464 179.82464 0 0 1-44.30336 118.4c97.59744 38.61504 164.51584 133.70368 164.51584 242.2272v80.13824a20.03456 20.03456 0 0 1-20.03456 20.03456l-160.2816-0.00512v160.27648h200.3456a20.03456 20.03456 0 0 0 20.03968-20.02944v-315.92448h40.06912v315.92448c0 33.19296-26.91072 60.10368-60.1088 60.10368H151.37792c-33.19296 0-60.10368-26.91072-60.10368-60.1088v-360.62208h40.06912v360.6272a20.03456 20.03456 0 0 0 20.03456 20.03456l400.69632-0.00512v-160.27648H191.44192a20.03456 20.03456 0 0 1-20.03456-20.02944v-80.14336c0-108.5184 66.9184-203.60704 164.51584-242.22208a179.82464 179.82464 0 0 1-44.30336-118.4c0-99.584 80.72704-180.31616 180.31104-180.31616z m180.31616 180.31104c0 44.38016-16.1536 86.11328-44.3136 118.41536 67.7888 26.86976 121.7792 81.42336 147.74272 150.04672h177.05984v-28.04736c0-90.9056-55.552-171.4688-138.53184-204.68736-14.30528-5.72416-17.05984-24.7808-4.9664-34.32448 29.69088-23.43424 47.32928-59.0336 47.32928-97.57184 0-68.60288-55.61344-124.2112-124.2112-124.2112-55.11168 0-102.83008 36.16768-118.67136 87.36768A179.89632 179.89632 0 0 1 652.2368 311.6544zM972.8 552.06912v48.08192a20.03456 20.03456 0 0 1-20.03456 20.03456h-211.3536a20.03456 20.03456 0 0 1-19.11296-14.0288c-22.97856-73.14944-82.9696-129.59744-157.53728-147.91168-16.31232-4.00384-20.75136-25.09824-7.43424-35.33824 34.34496-26.40384 54.84544-67.11296 54.84544-111.2576 0-43.50464-19.9168-83.69152-53.4272-110.14656a20.03456 20.03456 0 0 1-7.1936-19.82976C567.36256 106.1376 634.22464 51.2 712.3456 51.2c90.73664 0 164.28544 73.55392 164.28544 164.28544a163.82976 163.82976 0 0 1-40.10496 107.5712c82.67776 44.8512 136.27392 131.9424 136.27392 229.0176zM271.58016 131.33824c-55.3216 0-100.1728 44.8512-100.1728 100.1728a99.9424 99.9424 0 0 0 38.17472 78.68928c12.09344 9.54368 9.33888 28.60032-4.9664 34.32448-67.8912 27.17696-113.34656 93.09696-113.34656 167.4752v20.03456h121.088a261.23776 261.23776 0 0 1 123.57632-101.9648 179.82464 179.82464 0 0 1-44.3136-118.41536A179.97824 179.97824 0 0 1 354.304 174.98112a100.12672 100.12672 0 0 0-82.72384-43.64288z m-140.2368 100.1728c0-77.45024 62.78656-140.2368 140.2368-140.2368a140.2368 140.2368 0 0 1 126.8224 80.29184 20.03456 20.03456 0 0 1-6.64064 25.00096c-37.376 26.0864-60.07296 68.6592-60.07296 115.08736 0 44.1344 20.50048 84.84864 54.84544 111.2576 13.312 10.23488 8.87808 31.32928-7.43424 35.33312-58.2656 14.3104-108.19584 52.07552-138.15296 103.85408a20.03456 20.03456 0 0 1-17.34144 10.00448h-152.3712A20.03456 20.03456 0 0 1 51.2 552.06912V512c0-80.72704 43.80672-153.2928 111.73376-191.7952a139.85792 139.85792 0 0 1-31.5904-88.69376z" p-id="7481"></path></svg>