<?xml version="1.0" standalone="no"?><!DOCTYPE svg PUBLIC "-//W3C//DTD SVG 1.1//EN" "http://www.w3.org/Graphics/SVG/1.1/DTD/svg11.dtd"><svg t="1617282799535" class="icon" viewBox="0 0 1024 1024" version="1.1" xmlns="http://www.w3.org/2000/svg" p-id="17396" xmlns:xlink="http://www.w3.org/1999/xlink" width="200" height="200"><defs><style type="text/css"></style></defs><path d="M512.906971 1.828571C230.648686 1.828571 1.828571 230.648686 1.828571 512.906971 1.828571 795.179886 230.648686 1024 512.906971 1024 795.179886 1024 1024 795.179886 1024 512.906971 1024 230.648686 795.179886 1.828571 512.906971 1.828571z m274.666058 326.202515l-24.107886 129.536-4.183772 22.542628a18.651429 18.651429 0 0 1-21.752685 14.921143l-21.416229-3.978971-130.808686-24.341943a18.651429 18.651429 0 0 1-14.921142-21.752686l4.183771-22.528c1.901714-10.1376 11.615086-16.822857 21.752686-14.935771l64.585143 12.010057c-48.0256-83.499886-153.263543-117.613714-241.898058-75.819886-93.301029 43.988114-133.412571 155.706514-89.424457 249.007543 43.988114 93.315657 155.706514 133.4272 249.007543 89.439086a36.907886 36.907886 0 0 1 31.480686 66.750171 259.466971 259.466971 0 0 1-158.632229 20.48c-79.711086-14.833371-151.464229-66.413714-188.606171-145.188571-61.352229-130.121143-5.412571-285.886171 124.708571-347.253029 120.144457-56.656457 262.173257-13.282743 331.527315 96.138972l10.386285-55.866515c1.901714-10.122971 11.629714-16.808229 21.752686-14.921143l21.416229 3.978972c10.152229 1.901714 16.822857 11.644343 14.9504 21.781943z" fill="#42b983" p-id="17397" data-spm-anchor-id="a313x.7781069.0.i42" class=""></path></svg>